<?xml version="1.0" standalone="no"?>
<!DOCTYPE svg PUBLIC "-//W3C//DTD SVG 20010904//EN"
 "http://www.w3.org/TR/2001/REC-SVG-20010904/DTD/svg10.dtd">
<svg version="1.0" xmlns="http://www.w3.org/2000/svg"
 width="700.000000pt" height="700.000000pt" viewBox="0 0 700.000000 700.000000"
 preserveAspectRatio="xMidYMid meet">
<metadata>
Created by potrace 1.14, written by Peter Selinger 2001-2017
</metadata>
<g transform="translate(0.000000,700.000000) scale(0.100000,-0.100000)"
fill="#000000" stroke="none">
<path d="M1093 6741 c-28 -3 -54 -9 -57 -12 -4 -3 -5 -364 -4 -802 l3 -797 41
37 c84 78 143 131 264 238 68 61 136 121 150 135 45 42 379 341 403 360 21 17
86 18 1197 16 l1175 -2 84 -23 c292 -78 494 -271 568 -541 24 -88 23 -270 -1
-360 -32 -118 -128 -278 -207 -344 -126 -106 -233 -158 -414 -203 -16 -4 -402
-8 -856 -9 -454 0 -854 -4 -888 -8 -34 -4 -79 -13 -101 -21 -22 -8 -40 -12
-40 -10 0 3 -23 -8 -51 -24 -135 -75 -199 -198 -193 -372 6 -179 90 -295 256
-357 68 -25 99 -31 188 -37 61 -4 795 -6 1090 -2 74 1 149 -1 165 -5 79 -16
165 -76 232 -163 26 -33 50 -62 53 -65 3 -3 32 -41 64 -85 71 -96 267 -348
276 -355 3 -3 19 -23 36 -45 31 -42 52 -70 69 -89 6 -6 39 -47 74 -91 120
-149 181 -203 255 -227 26 -9 966 -20 966 -12 0 1 -51 67 -112 147 -62 80
-270 349 -462 597 l-349 452 49 47 c44 41 140 128 289 261 143 128 265 262
346 380 103 148 210 403 235 555 3 20 8 47 11 59 12 50 11 315 -2 391 -61 363
-229 693 -479 940 -242 240 -574 395 -921 430 -33 4 -73 9 -90 12 -46 8 -3253
12 -3312 4z"/>
<path d="M2878 5585 c-2 -2 -73 -6 -158 -10 -469 -20 -604 -45 -836 -156 -79
-37 -208 -118 -269 -168 -132 -109 -302 -312 -375 -446 -11 -22 -25 -47 -30
-55 -41 -69 -121 -290 -140 -390 -5 -25 -12 -56 -14 -69 -21 -99 -28 -377 -13
-496 62 -491 399 -961 844 -1178 117 -56 263 -106 363 -122 19 -3 47 -8 63
-11 15 -3 53 -8 85 -11 91 -9 2032 -10 2038 -1 3 4 -9 25 -25 45 -17 21 -101
130 -187 242 -86 112 -166 215 -179 230 -140 161 -159 180 -223 218 -69 41
-136 62 -219 69 -43 3 -310 7 -593 9 -283 2 -531 6 -550 10 -111 20 -251 67
-258 87 -2 4 -8 8 -13 8 -28 0 -142 101 -198 174 -172 226 -208 521 -94 765
98 209 307 364 548 406 17 2 39 7 50 9 89 17 239 20 950 21 640 1 822 4 865
14 195 48 303 193 301 407 -2 205 -117 352 -306 389 -30 6 -1421 16 -1427 10z"/>
<path d="M1010 1568 l0 -408 115 0 114 0 3 108 3 107 60 1 60 1 65 -96 c36
-53 70 -102 77 -108 8 -9 49 -13 132 -13 l121 0 -87 127 c-82 120 -85 127 -67
140 10 8 26 20 34 26 43 33 81 96 94 157 28 137 -27 258 -144 320 -71 37 -120
43 -352 45 l-228 2 0 -409z m416 218 c47 -11 76 -47 82 -104 3 -41 0 -52 -22
-79 -31 -37 -62 -46 -168 -47 l-78 -2 0 121 0 120 78 -1 c42 0 91 -4 108 -8z"/>
<path d="M1970 1568 l0 -408 115 0 115 0 1 28 c4 148 0 775 -6 780 -3 4 -56 7
-116 7 l-109 1 0 -408z"/>
<path d="M2469 1931 c0 -75 -1 -693 0 -735 l1 -38 253 4 c227 5 258 7 312 27
185 67 279 208 270 405 -8 175 -109 301 -288 358 -54 18 -94 21 -304 23 l-243
2 -1 -46z m462 -152 c54 -18 100 -58 121 -105 24 -56 26 -147 4 -199 -40 -93
-104 -127 -248 -130 -54 -1 -101 2 -104 6 -3 6 -7 349 -4 427 0 16 183 17 231
1z"/>
<path d="M3776 1941 c-7 -20 -25 -61 -39 -91 -51 -112 -67 -149 -137 -310 -39
-91 -80 -183 -90 -205 -46 -102 -70 -158 -70 -166 0 -5 51 -9 114 -9 l114 0
32 80 32 80 172 0 172 0 33 -80 32 -80 120 0 c66 0 118 3 116 8 -6 12 -36 80
-197 447 -85 193 -155 352 -157 355 -2 2 -55 5 -118 5 l-114 2 -15 -36z m183
-329 l50 -122 -105 0 -104 0 21 53 c11 28 27 65 35 81 8 16 14 33 14 38 0 16
30 81 35 76 3 -3 27 -60 54 -126z"/>
<path d="M4549 1961 c0 -9 -1 -191 -2 -406 l0 -390 106 -3 107 -3 2 208 3 208
33 -55 c18 -30 37 -62 42 -70 5 -8 36 -58 68 -110 l59 -95 54 0 53 0 99 168
c55 92 101 166 103 164 2 -2 5 -96 6 -208 l3 -204 105 -3 105 -3 -2 403 c-1
222 -2 406 -2 409 -1 3 -43 5 -95 5 l-94 -1 -129 -218 c-70 -120 -133 -225
-139 -234 -9 -13 -24 6 -90 113 -43 71 -83 136 -89 146 -62 106 -109 179 -118
185 -7 4 -51 8 -99 9 -75 1 -88 -1 -89 -15z"/>
<path d="M5763 1967 c-4 -6 -6 -554 -4 -765 l1 -43 113 3 112 3 0 405 0 405
-108 0 c-60 0 -111 -3 -114 -8z"/>
<path d="M1193 868 c-61 -10 -108 -35 -144 -76 -43 -49 -59 -92 -59 -159 1
-96 46 -170 131 -214 86 -44 234 -25 291 38 17 19 16 21 -16 52 -21 21 -36 29
-41 22 -3 -6 -23 -19 -43 -30 -101 -49 -214 19 -214 128 1 94 57 151 149 151
37 0 103 -26 103 -41 0 -16 14 -9 48 22 28 25 31 33 21 45 -37 44 -150 76
-226 62z"/>
<path d="M1740 869 c-64 -10 -92 -23 -136 -61 -80 -71 -100 -192 -48 -289 100
-183 410 -158 464 37 52 186 -88 343 -280 313z m110 -107 c47 -23 81 -89 75
-145 -7 -66 -62 -125 -120 -128 -64 -4 -86 2 -119 31 -72 64 -65 187 15 238
42 27 101 28 149 4z"/>
<path d="M2873 869 c-116 -21 -174 -110 -128 -199 18 -35 48 -52 130 -75 93
-25 114 -36 121 -58 17 -54 -80 -73 -183 -37 -31 11 -57 19 -59 17 -4 -5 -34
-66 -34 -70 0 -6 66 -37 93 -43 45 -11 140 -12 175 -2 95 26 136 98 107 187
-10 32 -55 58 -141 82 -43 12 -87 25 -96 31 -23 11 -23 51 -2 69 22 18 119 16
165 -3 l36 -16 11 32 c7 18 12 37 12 43 0 27 -135 54 -207 42z"/>
<path d="M5759 869 c-164 -24 -255 -200 -180 -347 43 -84 120 -125 231 -125
84 0 179 32 181 62 4 60 3 165 -2 173 -3 5 -26 8 -50 6 l-44 -3 0 -62 c0 -34
-5 -67 -11 -73 -16 -16 -103 -17 -140 -2 -51 21 -78 68 -79 134 0 66 21 102
76 131 44 24 125 19 165 -10 l29 -21 34 30 c31 28 32 30 16 48 -41 46 -140 71
-226 59z"/>
<path d="M2169 793 c0 -40 0 -125 0 -188 0 -63 0 -135 0 -160 l1 -45 49 0 c30
0 50 5 53 13 2 6 3 67 3 135 -1 67 2 122 6 122 4 0 14 -8 21 -19 7 -10 56 -71
108 -135 l95 -116 45 2 45 3 0 230 0 230 -50 0 -50 0 -5 -139 -5 -139 -114
139 -114 139 -43 0 -44 1 -1 -73z"/>
<path d="M3232 689 l3 -177 31 -39 c41 -50 78 -71 141 -79 67 -8 150 16 185
53 48 50 56 85 57 259 l2 161 -53 -1 -53 -1 -2 -152 c-2 -174 -11 -206 -66
-221 -56 -16 -94 -4 -119 36 -20 33 -22 49 -23 186 l-1 151 -53 1 -53 1 4
-178z"/>
<path d="M3814 858 c-3 -5 -6 -109 -7 -231 l-1 -222 172 -3 172 -2 0 44 0 45
-117 3 -118 3 -1 180 c-1 99 -2 183 -3 186 -2 9 -92 6 -97 -3z"/>
<path d="M4210 820 l0 -45 72 0 73 0 1 -175 c1 -96 2 -181 3 -187 1 -9 19 -13
54 -13 l52 0 0 188 0 187 65 2 c36 2 70 5 76 7 6 2 10 22 9 43 l-3 38 -201 0
-201 1 0 -46z"/>
<path d="M4725 855 c-2 -5 -3 -109 -2 -230 l2 -220 53 -3 52 -3 0 234 0 233
-51 0 c-28 0 -53 -5 -54 -11z"/>
<path d="M4995 862 c-2 -2 -4 -107 -5 -233 l0 -229 56 0 56 0 -2 43 c-1 23 -1
86 -1 141 l1 99 42 -54 c23 -30 45 -56 48 -59 3 -3 36 -42 74 -87 66 -81 69
-83 112 -83 l44 0 0 233 0 233 -52 0 -53 -1 -2 -75 c0 -41 -2 -104 -2 -140
l-1 -65 -28 35 c-69 89 -185 226 -200 238 -15 11 -77 14 -87 4z"/>
</g>
</svg>
