<svg xmlns="http://www.w3.org/2000/svg" xmlns:xlink="http://www.w3.org/1999/xlink" width="50" zoomAndPan="magnify" viewBox="0 0 375 374.999991" height="50" preserveAspectRatio="xMidYMid meet" version="1.0"><defs><g/></defs><path fill="#040380" d="M 315.644531 242.960938 C 297.070312 242.960938 281.515625 243.394531 266.019531 242.65625 C 262.210938 242.472656 257.636719 239.246094 255.027344 236.082031 C 242.953125 221.4375 231.21875 206.492188 219.84375 191.292969 C 214.890625 184.675781 209.558594 181.441406 200.855469 181.773438 C 181.464844 182.511719 162.023438 182.207031 142.605469 182.050781 C 124.96875 181.90625 115.457031 173.4375 115.898438 158.765625 C 116.320312 144.765625 125.457031 137.519531 143.046875 137.496094 C 169.222656 137.472656 195.394531 137.683594 221.570312 137.597656 C 246.125 137.519531 264.871094 119.929688 264.628906 97.472656 C 264.390625 75.496094 245.875 58.144531 221.933594 58.042969 C 180.167969 57.859375 138.40625 57.992188 102.355469 57.992188 C 84.625 73.886719 70.488281 86.5625 55.25 100.21875 C 55.25 71.289062 55.25 43.089844 55.25 14.234375 C 58.445312 13.945312 61.292969 13.445312 64.144531 13.449219 C 119.023438 13.492188 173.914062 13.097656 228.785156 13.875 C 262.964844 14.363281 290.1875 29.167969 306.398438 59.898438 C 321.140625 87.84375 320.039062 116.789062 302.246094 142.746094 C 293.03125 156.191406 278.929688 166.28125 266.09375 178.808594 C 280.871094 197.933594 297.285156 219.191406 315.644531 242.960938 Z M 315.644531 242.960938 " fill-opacity="1" fill-rule="nonzero"/><path fill="#ffe86b" d="M 238.324219 242.886719 C 200.777344 242.886719 166.136719 243.835938 131.574219 242.644531 C 90.4375 241.226562 56.578125 205.359375 55.230469 163.890625 C 53.792969 119.761719 84.628906 80.929688 127.304688 77.417969 C 160.457031 74.695312 193.96875 75.84375 227.308594 76.058594 C 239.6875 76.136719 247.195312 85.460938 247.148438 97.769531 C 247.09375 110.84375 238.824219 119.515625 224.558594 119.703125 C 197.957031 120.050781 171.339844 119.265625 144.746094 119.78125 C 136.527344 119.941406 127.746094 121.40625 120.296875 124.699219 C 104.285156 131.777344 95.632812 149.175781 98.449219 165.125 C 101.757812 183.90625 115.589844 197.730469 134.320312 198.6875 C 154.109375 199.699219 174.023438 198.460938 193.8125 199.519531 C 199.5625 199.828125 206.472656 203.351562 210.410156 207.636719 C 219.988281 218.066406 228.140625 229.8125 238.324219 242.886719 Z M 238.324219 242.886719 " fill-opacity="1" fill-rule="nonzero"/><g fill="#040380" fill-opacity="1"><g transform="translate(49.660543, 312.80794)"><g><path d="M 23.453125 -11.609375 L 16.71875 -11.609375 L 16.71875 0 L 4.359375 0 L 4.359375 -43.65625 L 24.328125 -43.65625 C 28.273438 -43.65625 31.703125 -43 34.609375 -41.6875 C 37.523438 -40.382812 39.769531 -38.515625 41.34375 -36.078125 C 42.925781 -33.648438 43.71875 -30.789062 43.71875 -27.5 C 43.71875 -24.34375 42.976562 -21.585938 41.5 -19.234375 C 40.03125 -16.890625 37.921875 -15.050781 35.171875 -13.71875 L 44.59375 0 L 31.375 0 Z M 31.25 -27.5 C 31.25 -29.539062 30.601562 -31.125 29.3125 -32.25 C 28.019531 -33.375 26.109375 -33.9375 23.578125 -33.9375 L 16.71875 -33.9375 L 16.71875 -21.140625 L 23.578125 -21.140625 C 26.109375 -21.140625 28.019531 -21.691406 29.3125 -22.796875 C 30.601562 -23.898438 31.25 -25.46875 31.25 -27.5 Z M 31.25 -27.5 "/></g></g></g><g fill="#040380" fill-opacity="1"><g transform="translate(101.244578, 312.80794)"><g><path d="M 4.359375 -43.65625 L 16.71875 -43.65625 L 16.71875 0 L 4.359375 0 Z M 4.359375 -43.65625 "/></g></g></g><g fill="#040380" fill-opacity="1"><g transform="translate(127.816862, 312.80794)"><g><path d="M 4.359375 -43.65625 L 25.015625 -43.65625 C 29.796875 -43.65625 34.035156 -42.757812 37.734375 -40.96875 C 41.429688 -39.1875 44.300781 -36.648438 46.34375 -33.359375 C 48.382812 -30.078125 49.40625 -26.234375 49.40625 -21.828125 C 49.40625 -17.421875 48.382812 -13.570312 46.34375 -10.28125 C 44.300781 -7 41.429688 -4.460938 37.734375 -2.671875 C 34.035156 -0.890625 29.796875 0 25.015625 0 L 4.359375 0 Z M 24.515625 -9.859375 C 28.253906 -9.859375 31.253906 -10.914062 33.515625 -13.03125 C 35.785156 -15.15625 36.921875 -18.085938 36.921875 -21.828125 C 36.921875 -25.566406 35.785156 -28.5 33.515625 -30.625 C 31.253906 -32.75 28.253906 -33.8125 24.515625 -33.8125 L 16.71875 -33.8125 L 16.71875 -9.859375 Z M 24.515625 -9.859375 "/></g></g></g><g fill="#040380" fill-opacity="1"><g transform="translate(184.765004, 312.80794)"><g><path d="M 33.625 -8.484375 L 15.15625 -8.484375 L 11.71875 0 L -0.875 0 L 18.40625 -43.65625 L 30.5625 -43.65625 L 49.90625 0 L 37.046875 0 Z M 30 -17.59375 L 24.390625 -31.5625 L 18.78125 -17.59375 Z M 30 -17.59375 "/></g></g></g><g fill="#040380" fill-opacity="1"><g transform="translate(239.218205, 312.80794)"><g><path d="M 43.78125 0 L 43.65625 -23.140625 L 32.4375 -4.296875 L 26.953125 -4.296875 L 15.78125 -22.515625 L 15.78125 0 L 4.359375 0 L 4.359375 -43.65625 L 14.53125 -43.65625 L 29.875 -18.46875 L 44.84375 -43.65625 L 55.015625 -43.65625 L 55.140625 0 Z M 43.78125 0 "/></g></g></g><g fill="#040380" fill-opacity="1"><g transform="translate(304.150131, 312.80794)"><g><path d="M 4.359375 -43.65625 L 16.71875 -43.65625 L 16.71875 0 L 4.359375 0 Z M 4.359375 -43.65625 "/></g></g></g><g fill="#ffe86b" fill-opacity="1"><g transform="translate(51.469708, 353.563151)"><g><path d="M 14.890625 0.421875 C 12.347656 0.421875 10.050781 -0.128906 8 -1.234375 C 5.945312 -2.335938 4.332031 -3.867188 3.15625 -5.828125 C 1.976562 -7.785156 1.390625 -10 1.390625 -12.46875 C 1.390625 -14.945312 1.976562 -17.164062 3.15625 -19.125 C 4.332031 -21.082031 5.945312 -22.613281 8 -23.71875 C 10.050781 -24.820312 12.363281 -25.375 14.9375 -25.375 C 17.09375 -25.375 19.046875 -24.992188 20.796875 -24.234375 C 22.546875 -23.472656 24.015625 -22.378906 25.203125 -20.953125 L 21.484375 -17.53125 C 19.796875 -19.476562 17.707031 -20.453125 15.21875 -20.453125 C 13.675781 -20.453125 12.296875 -20.113281 11.078125 -19.4375 C 9.867188 -18.757812 8.925781 -17.816406 8.25 -16.609375 C 7.570312 -15.398438 7.234375 -14.019531 7.234375 -12.46875 C 7.234375 -10.925781 7.570312 -9.546875 8.25 -8.328125 C 8.925781 -7.117188 9.867188 -6.175781 11.078125 -5.5 C 12.296875 -4.820312 13.675781 -4.484375 15.21875 -4.484375 C 17.707031 -4.484375 19.796875 -5.472656 21.484375 -7.453125 L 25.203125 -4.03125 C 24.015625 -2.582031 22.539062 -1.476562 20.78125 -0.71875 C 19.019531 0.0390625 17.054688 0.421875 14.890625 0.421875 Z M 14.890625 0.421875 "/></g></g></g><g fill="#ffe86b" fill-opacity="1"><g transform="translate(80.335892, 353.563151)"><g><path d="M 15.046875 0.421875 C 12.453125 0.421875 10.113281 -0.132812 8.03125 -1.25 C 5.957031 -2.363281 4.332031 -3.898438 3.15625 -5.859375 C 1.976562 -7.816406 1.390625 -10.019531 1.390625 -12.46875 C 1.390625 -14.914062 1.976562 -17.117188 3.15625 -19.078125 C 4.332031 -21.046875 5.957031 -22.585938 8.03125 -23.703125 C 10.113281 -24.816406 12.453125 -25.375 15.046875 -25.375 C 17.628906 -25.375 19.953125 -24.816406 22.015625 -23.703125 C 24.085938 -22.585938 25.71875 -21.046875 26.90625 -19.078125 C 28.09375 -17.117188 28.6875 -14.914062 28.6875 -12.46875 C 28.6875 -10.019531 28.09375 -7.816406 26.90625 -5.859375 C 25.71875 -3.898438 24.085938 -2.363281 22.015625 -1.25 C 19.953125 -0.132812 17.628906 0.421875 15.046875 0.421875 Z M 15.046875 -4.484375 C 16.515625 -4.484375 17.84375 -4.820312 19.03125 -5.5 C 20.21875 -6.175781 21.148438 -7.117188 21.828125 -8.328125 C 22.503906 -9.546875 22.84375 -10.925781 22.84375 -12.46875 C 22.84375 -14.019531 22.503906 -15.398438 21.828125 -16.609375 C 21.148438 -17.816406 20.21875 -18.757812 19.03125 -19.4375 C 17.84375 -20.113281 16.515625 -20.453125 15.046875 -20.453125 C 13.566406 -20.453125 12.234375 -20.113281 11.046875 -19.4375 C 9.859375 -18.757812 8.925781 -17.816406 8.25 -16.609375 C 7.570312 -15.398438 7.234375 -14.019531 7.234375 -12.46875 C 7.234375 -10.925781 7.570312 -9.546875 8.25 -8.328125 C 8.925781 -7.117188 9.859375 -6.175781 11.046875 -5.5 C 12.234375 -4.820312 13.566406 -4.484375 15.046875 -4.484375 Z M 15.046875 -4.484375 "/></g></g></g><g fill="#ffe86b" fill-opacity="1"><g transform="translate(113.157665, 353.563151)"><g><path d="M 25.84375 -24.953125 L 25.84375 0 L 21.09375 0 L 8.65625 -15.140625 L 8.65625 0 L 2.953125 0 L 2.953125 -24.953125 L 7.734375 -24.953125 L 20.140625 -9.796875 L 20.140625 -24.953125 Z M 25.84375 -24.953125 "/></g></g></g><g fill="#ffe86b" fill-opacity="1"><g transform="translate(144.696556, 353.563151)"><g><path d="M 11.15625 0.421875 C 9.1875 0.421875 7.28125 0.15625 5.4375 -0.375 C 3.59375 -0.90625 2.113281 -1.597656 1 -2.453125 L 2.953125 -6.8125 C 4.023438 -6.019531 5.296875 -5.382812 6.765625 -4.90625 C 8.242188 -4.4375 9.71875 -4.203125 11.1875 -4.203125 C 12.832031 -4.203125 14.046875 -4.445312 14.828125 -4.9375 C 15.609375 -5.425781 16 -6.070312 16 -6.875 C 16 -7.46875 15.765625 -7.960938 15.296875 -8.359375 C 14.835938 -8.753906 14.242188 -9.066406 13.515625 -9.296875 C 12.796875 -9.535156 11.816406 -9.800781 10.578125 -10.09375 C 8.679688 -10.539062 7.125 -10.988281 5.90625 -11.4375 C 4.695312 -11.894531 3.660156 -12.617188 2.796875 -13.609375 C 1.929688 -14.609375 1.5 -15.941406 1.5 -17.609375 C 1.5 -19.054688 1.890625 -20.367188 2.671875 -21.546875 C 3.453125 -22.722656 4.632812 -23.65625 6.21875 -24.34375 C 7.800781 -25.03125 9.734375 -25.375 12.015625 -25.375 C 13.609375 -25.375 15.160156 -25.179688 16.671875 -24.796875 C 18.191406 -24.421875 19.523438 -23.878906 20.671875 -23.171875 L 18.890625 -18.78125 C 16.585938 -20.09375 14.28125 -20.75 11.96875 -20.75 C 10.351562 -20.75 9.160156 -20.484375 8.390625 -19.953125 C 7.617188 -19.429688 7.234375 -18.742188 7.234375 -17.890625 C 7.234375 -17.035156 7.675781 -16.398438 8.5625 -15.984375 C 9.457031 -15.566406 10.820312 -15.15625 12.65625 -14.75 C 14.550781 -14.300781 16.101562 -13.847656 17.3125 -13.390625 C 18.53125 -12.941406 19.570312 -12.226562 20.4375 -11.25 C 21.300781 -10.28125 21.734375 -8.96875 21.734375 -7.3125 C 21.734375 -5.882812 21.335938 -4.582031 20.546875 -3.40625 C 19.753906 -2.226562 18.5625 -1.296875 16.96875 -0.609375 C 15.375 0.078125 13.4375 0.421875 11.15625 0.421875 Z M 11.15625 0.421875 "/></g></g></g><g fill="#ffe86b" fill-opacity="1"><g transform="translate(170.17733, 353.563151)"><g><path d="M 14.046875 0.421875 C 10.484375 0.421875 7.707031 -0.5625 5.71875 -2.53125 C 3.738281 -4.5 2.75 -7.316406 2.75 -10.984375 L 2.75 -24.953125 L 8.515625 -24.953125 L 8.515625 -11.1875 C 8.515625 -6.71875 10.367188 -4.484375 14.078125 -4.484375 C 15.878906 -4.484375 17.253906 -5.023438 18.203125 -6.109375 C 19.160156 -7.191406 19.640625 -8.882812 19.640625 -11.1875 L 19.640625 -24.953125 L 25.34375 -24.953125 L 25.34375 -10.984375 C 25.34375 -7.316406 24.347656 -4.5 22.359375 -2.53125 C 20.378906 -0.5625 17.609375 0.421875 14.046875 0.421875 Z M 14.046875 0.421875 "/></g></g></g><g fill="#ffe86b" fill-opacity="1"><g transform="translate(201.003503, 353.563151)"><g><path d="M 2.953125 -24.953125 L 8.734375 -24.953125 L 8.734375 -4.703125 L 21.234375 -4.703125 L 21.234375 0 L 2.953125 0 Z M 2.953125 -24.953125 "/></g></g></g><g fill="#ffe86b" fill-opacity="1"><g transform="translate(225.272644, 353.563151)"><g><path d="M 8.125 -20.25 L 0.140625 -20.25 L 0.140625 -24.953125 L 21.890625 -24.953125 L 21.890625 -20.25 L 13.90625 -20.25 L 13.90625 0 L 8.125 0 Z M 8.125 -20.25 "/></g></g></g><g fill="#ffe86b" fill-opacity="1"><g transform="translate(250.040686, 353.563151)"><g><path d="M 2.953125 -24.953125 L 8.734375 -24.953125 L 8.734375 0 L 2.953125 0 Z M 2.953125 -24.953125 "/></g></g></g><g fill="#ffe86b" fill-opacity="1"><g transform="translate(264.474325, 353.563151)"><g><path d="M 25.84375 -24.953125 L 25.84375 0 L 21.09375 0 L 8.65625 -15.140625 L 8.65625 0 L 2.953125 0 L 2.953125 -24.953125 L 7.734375 -24.953125 L 20.140625 -9.796875 L 20.140625 -24.953125 Z M 25.84375 -24.953125 "/></g></g></g><g fill="#ffe86b" fill-opacity="1"><g transform="translate(296.013211, 353.563151)"><g><path d="M 19.8125 -12.859375 L 25.09375 -12.859375 L 25.09375 -2.75 C 23.738281 -1.726562 22.171875 -0.941406 20.390625 -0.390625 C 18.609375 0.148438 16.8125 0.421875 15 0.421875 C 12.414062 0.421875 10.085938 -0.128906 8.015625 -1.234375 C 5.953125 -2.335938 4.332031 -3.867188 3.15625 -5.828125 C 1.976562 -7.785156 1.390625 -10 1.390625 -12.46875 C 1.390625 -14.945312 1.976562 -17.164062 3.15625 -19.125 C 4.332031 -21.082031 5.960938 -22.613281 8.046875 -23.71875 C 10.140625 -24.820312 12.492188 -25.375 15.109375 -25.375 C 17.296875 -25.375 19.28125 -25.003906 21.0625 -24.265625 C 22.84375 -23.535156 24.335938 -22.46875 25.546875 -21.0625 L 21.84375 -17.640625 C 20.0625 -19.515625 17.910156 -20.453125 15.390625 -20.453125 C 13.804688 -20.453125 12.394531 -20.117188 11.15625 -19.453125 C 9.914062 -18.796875 8.953125 -17.859375 8.265625 -16.640625 C 7.578125 -15.429688 7.234375 -14.039062 7.234375 -12.46875 C 7.234375 -10.925781 7.578125 -9.546875 8.265625 -8.328125 C 8.953125 -7.117188 9.90625 -6.175781 11.125 -5.5 C 12.351562 -4.820312 13.753906 -4.484375 15.328125 -4.484375 C 16.992188 -4.484375 18.488281 -4.84375 19.8125 -5.5625 Z M 19.8125 -12.859375 "/></g></g></g></svg>