<?xml version="1.0" encoding="UTF-8"?><svg id="Layer_2" xmlns="http://www.w3.org/2000/svg" xmlns:xlink="http://www.w3.org/1999/xlink" viewBox="0 0 345.48 84"><defs><style>.cls-1,.cls-2,.cls-3,.cls-4,.cls-5{stroke-width:0px;}.cls-1,.cls-4{fill-rule:evenodd;}.cls-1,.cls-5{fill:#272727;}.cls-2{fill:none;}.cls-6{clip-path:url(#clippath-1);}.cls-3,.cls-4{fill:#457d58;}.cls-7{clip-path:url(#clippath);}</style><clipPath id="clippath"><rect class="cls-2" x="35.95" y="1.65" width="99.05" height="82.35"/></clipPath><clipPath id="clippath-1"><rect class="cls-2" x="0" y="0" width="77.95" height="83.65"/></clipPath></defs><g id="Layer_1-2"><g class="cls-7"><path class="cls-4" d="M95.91,30.5c-3.86-8.36-9.61-17.06-17.26-26.09-23.3,4.19-37.42,6.86-42.36,8.04,23.24,31.68,37.76,55.54,43.54,71.59,14.6-11.3,23.68-18.23,27.27-20.79l-3.33-11.38c5.33-13.67,15.85-30.41,31.58-50.21-14.98,16.35-31.84,36.89-50.6,61.59-8.21-13.87-17.55-25.24-28.04-34.13,7.05,1.21,16.19,5.46,27.45,12.75l11.77-11.38h0Z"/></g><g class="cls-6"><path class="cls-1" d="M65.11,82.47C47.56,59.27,27.94,41.49,6.27,29.12c8.73-3.76,16.7-5.98,23.93-6.67,12.32,13.24,27.02,33.06,44.1,59.47-3.59-8.79-8.62-17.59-13.46-25.53-8.63-14.19-18.28-27.95-28.1-41.34l-3.92-5.34,6.45-1.53c4.76-1.13,9.69-2.02,14.5-2.93,9.34-1.77,18.7-3.47,28.06-5.15H0v55.41c25.04,9.4,44.43,18.68,58.15,27.85-13.19-12.31-30.12-22.9-50.8-31.77l12.16-5.3c19.62,12.91,34.82,24.97,45.6,36.19h0Z"/></g><path class="cls-5" d="M164.27,42.4c1.32,0,2.61-.3,3.88-.91,1.27-.6,2.55-1.62,3.84-3.05l4.05,3.83c-1.62,2.09-3.48,3.68-5.56,4.75-2.07,1.07-4.21,1.61-6.41,1.61-1.99,0-3.86-.41-5.59-1.22-1.73-.81-3.23-1.91-4.52-3.28-1.27-1.38-2.27-2.97-3-4.8-.73-1.83-1.09-3.79-1.09-5.86s.38-4,1.12-5.81c.76-1.82,1.79-3.42,3.08-4.8,1.29-1.38,2.82-2.46,4.58-3.25,1.77-.8,3.64-1.2,5.62-1.2,1.84,0,3.6.34,5.27,1.03,1.66.69,3.3,1.83,4.89,3.42l-3.62,4.42c-1.16-1.07-2.26-1.8-3.3-2.17-1.03-.38-2.11-.56-3.23-.56s-2.2.23-3.2.7c-1,.47-1.88,1.11-2.62,1.91-.74.8-1.32,1.75-1.75,2.83-.43,1.09-.64,2.25-.64,3.48s.21,2.4.64,3.47c.43,1.07,1.01,2.02,1.75,2.83.75.81,1.62,1.45,2.62,1.92,1.01.47,2.08.7,3.2.7h0Z"/><path class="cls-5" d="M184.7,30.46c.28-.44.6-.85.95-1.25.36-.39.79-.75,1.28-1.06.5-.32,1.06-.58,1.69-.77.63-.2,1.35-.3,2.16-.3.94,0,2.02.16,3.27.48l-.55,5.09c-.3-.06-.61-.13-.91-.22-.25-.05-.53-.1-.83-.14-.3-.04-.58-.06-.83-.06-.88,0-1.7.12-2.45.38-.75.25-1.4.59-1.95,1.03-.55.44-1,.97-1.33,1.59-.34.62-.5,1.28-.5,2v10.86h-5.69v-20.48h5.16l.53,2.84Z"/><path class="cls-5" d="M206.21,27.04c1.54,0,2.95.31,4.22.94,1.27.62,2.36,1.43,3.27,2.44.91,1,1.6,2.16,2.09,3.47.5,1.3.75,2.64.75,4.02,0,.82-.11,1.7-.33,2.64h-14.62c.55.94,1.34,1.73,2.36,2.38,1.02.65,2.12.97,3.31.97s2.21-.09,3.11-.28c.89-.2,1.74-.45,2.55-.75l1.89,3.52c-1.02.72-2.19,1.27-3.5,1.66-1.3.38-2.7.58-4.17.58-1.62,0-3.14-.28-4.55-.84-1.41-.57-2.64-1.34-3.69-2.3-1.04-.97-1.87-2.11-2.47-3.42-.61-1.32-.91-2.73-.91-4.22s.27-2.84.83-4.14c.55-1.31,1.31-2.46,2.28-3.44.98-.98,2.11-1.75,3.41-2.33,1.3-.58,2.69-.88,4.17-.88h0ZM210.89,36.14c-.34-1.19-.93-2.15-1.78-2.89-.84-.75-1.81-1.12-2.89-1.12s-2.09.38-2.98,1.12c-.9.74-1.51,1.7-1.84,2.89h9.5Z"/><path class="cls-5" d="M241.31,17.96v30.14h-4.86l-.83-1.78c-.64.67-1.51,1.21-2.62,1.64-1.12.43-2.28.64-3.48.64-1.47,0-2.82-.28-4.06-.84-1.23-.57-2.29-1.34-3.19-2.31-.9-.98-1.6-2.12-2.11-3.42-.51-1.31-.77-2.71-.77-4.2s.25-2.88.77-4.19c.51-1.31,1.21-2.46,2.11-3.44.89-.98,1.96-1.75,3.19-2.31,1.24-.56,2.59-.84,4.06-.84,1.29,0,2.44.15,3.44.45,1.01.3,1.9.81,2.67,1.53v-11.06h5.69ZM235.62,37.9c0-1.07-.14-1.97-.42-2.7-.27-.73-.66-1.32-1.16-1.77-.49-.46-1.06-.79-1.72-1-.65-.21-1.34-.31-2.08-.31s-1.43.15-2.08.45c-.65.3-1.21.71-1.7,1.22-.48.51-.86,1.12-1.14,1.83-.27.7-.41,1.43-.41,2.2s.13,1.55.41,2.23c.28.69.66,1.29,1.14,1.8.49.5,1.05.91,1.7,1.22.64.3,1.34.45,2.08.45,1.49,0,2.75-.46,3.78-1.38,1.03-.93,1.56-2.34,1.59-4.25h0Z"/><path class="cls-5" d="M251.21,48.1h-5.69v-20.48h5.69v20.48ZM248.37,24.81c-.89,0-1.63-.3-2.23-.91-.61-.6-.91-1.35-.91-2.23s.3-1.62.91-2.23c.6-.62,1.35-.94,2.23-.94s1.63.31,2.23.94c.6.62.91,1.36.91,2.23s-.3,1.63-.91,2.23c-.61.61-1.35.91-2.23.91Z"/><path class="cls-5" d="M263.04,40.76c0,.96.29,1.7.88,2.22.59.52,1.38.78,2.34.78.77,0,1.54-.15,2.31-.45v4.8c-.69.22-1.42.4-2.19.55-.77.16-1.54.23-2.31.23-.89,0-1.73-.11-2.53-.33-.79-.22-1.51-.59-2.14-1.12-.64-.54-1.14-1.26-1.52-2.16-.37-.89-.55-2-.55-3.33v-9.25h-2.94v-3.84l2.94-1.23v-4.58h5.7v4.58h5.53v5.08h-5.53v8.06Z"/><path class="cls-3" d="M291.03,18.82h6.28v29.28h-6.28v-12.59h-13.42v12.59h-6.23v-29.28h6.23v10.98h13.42v-10.98Z"/><path class="cls-3" d="M314.06,27.62h5.7v20.48h-4.88l-.83-1.56c-.67.46-1.42.84-2.27,1.12-.84.29-1.73.44-2.69.44-.75,0-1.6-.11-2.55-.33-.95-.22-1.84-.63-2.67-1.23-.82-.61-1.52-1.46-2.08-2.53-.56-1.07-.84-2.46-.84-4.17v-12.22h5.73v12.02c0,.64.1,1.18.31,1.62.21.44.48.79.83,1.05.34.26.73.45,1.17.58.45.12.91.19,1.38.19.35,0,.74-.06,1.17-.19.43-.12.82-.32,1.19-.59.38-.28.69-.64.94-1.08.25-.45.38-.97.38-1.58v-12.02Z"/><path class="cls-3" d="M335.36,27.04c1.44,0,2.77.28,4.02.84,1.24.56,2.31,1.34,3.22,2.31.91.98,1.61,2.12,2.12,3.44.51,1.3.77,2.7.77,4.19s-.26,2.89-.77,4.2c-.51,1.3-1.22,2.45-2.12,3.42-.91.97-1.98,1.74-3.22,2.31-1.24.56-2.58.84-4.02.84-1.21,0-2.37-.21-3.48-.64-1.12-.43-1.99-.97-2.62-1.64l-.83,1.78h-4.86v-30.14h5.69v11.31c1.57-1.49,3.61-2.23,6.11-2.23h0ZM334.58,43.53c.75,0,1.45-.15,2.09-.45.64-.31,1.21-.72,1.7-1.22.5-.51.88-1.11,1.16-1.8.28-.69.42-1.43.42-2.23s-.14-1.5-.42-2.2c-.27-.71-.66-1.32-1.16-1.83-.49-.51-1.06-.91-1.7-1.22-.65-.3-1.34-.45-2.09-.45s-1.43.11-2.08.31c-.65.21-1.21.54-1.7,1-.48.45-.86,1.04-1.14,1.77-.27.73-.41,1.63-.41,2.7,0,.97.13,1.8.41,2.5.28.7.66,1.28,1.14,1.73.49.46,1.05.81,1.7,1.05.64.23,1.34.34,2.08.34h0Z"/></g></svg>