<svg version="1.0" viewBox="0 0 375 375" xmlns="http://www.w3.org/2000/svg" zoomAndPan="magnify">
   <defs>
      <clipPath id="b">
      <path d="m164 105h99.051v82.348h-99.051z"/>
      </clipPath>
      <clipPath id="a">
      <path d="m128.05 103.35h77.949v83.652h-77.949z"/>
      </clipPath>
   </defs>
   <g clip-path="url(#b)">
      <path d="m223.96 133.85c-3.8594-8.3555-9.6133-17.055-17.262-26.086-23.301 4.1875-37.422 6.8633-42.363 8.0391 23.242 31.68 37.758 55.543 43.539 71.586 14.598-11.305 23.684-18.234 27.266-20.789l-3.332-11.379c5.3281-13.672 15.852-30.406 31.578-50.211-14.977 16.355-31.84 36.887-50.602 61.586-8.207-13.867-17.551-25.242-28.043-34.129 7.0469 1.2148 16.195 5.4609 27.453 12.746l11.77-11.375z" fill="#457d58" fill-rule="evenodd"/>
   </g>
   <g clip-path="url(#a)">
      <path d="m193.16 185.82c-17.555-23.199-37.168-40.98-58.84-53.348 8.7266-3.7578 16.699-5.9805 23.926-6.668 12.32 13.242 27.02 33.062 44.102 59.469-3.5898-8.7852-8.6211-17.59-13.457-25.531-8.6328-14.191-18.277-27.949-28.105-41.34l-3.918-5.3398 6.4453-1.5312c4.7617-1.1328 9.6875-2.0234 14.496-2.9336 9.3398-1.7734 18.699-3.4688 28.055-5.1523h-77.82v55.406c25.043 9.3984 44.43 18.68 58.148 27.852-13.191-12.305-30.125-22.895-50.797-31.77l12.156-5.2969c19.625 12.914 34.824 24.973 45.602 36.188z" fill="#272727" fill-rule="evenodd"/>
   </g>
   <g fill="#272727">
      <g transform="translate(96.955 235.26)">
         <path d="m15.734-5.7031c1.3203 0 2.6133-0.30078 3.875-0.90625 1.2695-0.60156 2.5508-1.6172 3.8438-3.0469l4.0469 3.8281c-1.625 2.0938-3.4805 3.6797-5.5625 4.75-2.0742 1.0742-4.2109 1.6094-6.4062 1.6094-1.9922 0-3.8555-0.40625-5.5938-1.2188-1.7305-0.8125-3.2344-1.9062-4.5156-3.2812-1.2734-1.375-2.2734-2.9727-3-4.7969-0.73047-1.832-1.0938-3.7852-1.0938-5.8594 0-2.0625 0.375-4 1.125-5.8125 0.75781-1.8203 1.7852-3.4219 3.0781-4.7969 1.2891-1.375 2.8164-2.457 4.5781-3.25 1.7695-0.80078 3.6445-1.2031 5.625-1.2031 1.8438 0 3.5977 0.34375 5.2656 1.0312 1.6641 0.6875 3.2969 1.8281 4.8906 3.4219l-3.625 4.4219c-1.1562-1.0703-2.2578-1.7969-3.2969-2.1719-1.0312-0.375-2.1094-0.5625-3.2344-0.5625s-2.1953 0.23438-3.2031 0.70312c-1 0.46875-1.875 1.1055-2.625 1.9062-0.74219 0.80469-1.3242 1.7461-1.75 2.8281-0.42969 1.0859-0.64062 2.2461-0.64062 3.4844 0 1.2422 0.21094 2.3984 0.64062 3.4688 0.42578 1.0742 1.0078 2.0156 1.75 2.8281 0.75 0.8125 1.625 1.4531 2.625 1.9219 1.0078 0.46875 2.0781 0.70312 3.2031 0.70312z"/>
      </g>
   </g>
   <g fill="#272727">
      <g transform="translate(125.65 235.26)">
         <path d="m7.4688-17.641c0.28125-0.4375 0.59766-0.85156 0.95312-1.25 0.36328-0.39453 0.78906-0.75 1.2812-1.0625 0.5-0.32031 1.0625-0.57812 1.6875-0.76562 0.63281-0.19531 1.3516-0.29688 2.1562-0.29688 0.9375 0 2.0234 0.16406 3.2656 0.48438l-0.54688 5.0938c-0.30469-0.0625-0.60547-0.13281-0.90625-0.21875-0.25-0.050781-0.52734-0.097656-0.82812-0.14062-0.30469-0.039063-0.57812-0.0625-0.82812-0.0625-0.875 0-1.6953 0.125-2.4531 0.375-0.75 0.25-1.4023 0.59375-1.9531 1.0312-0.55469 0.4375-0.99609 0.96875-1.3281 1.5938-0.33594 0.61719-0.5 1.2812-0.5 2v10.859h-5.6875v-20.484h5.1562z"/>
      </g>
   </g>
   <g fill="#272727">
      <g transform="translate(142.66 235.26)">
         <path d="m11.969-21.062c1.5391 0 2.9453 0.3125 4.2188 0.9375 1.2695 0.61719 2.3594 1.4297 3.2656 2.4375 0.90625 1 1.6016 2.1562 2.0938 3.4688 0.5 1.3047 0.75 2.6406 0.75 4.0156 0 0.82422-0.10938 1.7031-0.32812 2.6406h-14.625c0.55078 0.9375 1.3359 1.7305 2.3594 2.375 1.0195 0.64844 2.125 0.96875 3.3125 0.96875 1.1758 0 2.2109-0.09375 3.1094-0.28125 0.89453-0.19531 1.7422-0.44531 2.5469-0.75l1.8906 3.5156c-1.0234 0.71875-2.1875 1.2734-3.5 1.6562-1.3047 0.38281-2.6953 0.57812-4.1719 0.57812-1.625 0-3.1406-0.28125-4.5469-0.84375-1.4062-0.57031-2.6367-1.3359-3.6875-2.2969-1.043-0.96875-1.8672-2.1094-2.4688-3.4219-0.60547-1.3203-0.90625-2.7266-0.90625-4.2188 0-1.457 0.27344-2.8359 0.82812-4.1406 0.55078-1.3125 1.3125-2.457 2.2812-3.4375 0.97656-0.97656 2.1133-1.7539 3.4062-2.3281 1.3008-0.58203 2.6914-0.875 4.1719-0.875zm4.6719 9.0938c-0.33594-1.1875-0.92969-2.1484-1.7812-2.8906-0.84375-0.75-1.8086-1.125-2.8906-1.125-1.0938 0-2.0898 0.375-2.9844 1.125-0.89844 0.74219-1.5117 1.7031-1.8438 2.8906z"/>
      </g>
   </g>
   <g fill="#272727">
      <g transform="translate(167.22 235.26)">
         <path d="m22.5-30.141v30.141h-4.8594l-0.82812-1.7812c-0.63672 0.66797-1.5117 1.2148-2.625 1.6406-1.1172 0.42578-2.2773 0.64062-3.4844 0.64062-1.4688 0-2.8242-0.28125-4.0625-0.84375-1.2305-0.57031-2.293-1.3438-3.1875-2.3125-0.89844-0.97656-1.6016-2.1172-2.1094-3.4219-0.51172-1.3125-0.76562-2.7109-0.76562-4.2031 0-1.4883 0.25391-2.8828 0.76562-4.1875 0.50781-1.3125 1.2109-2.457 2.1094-3.4375 0.89453-0.97656 1.957-1.75 3.1875-2.3125 1.2383-0.5625 2.5938-0.84375 4.0625-0.84375 1.2891 0 2.4375 0.15234 3.4375 0.45312 1.0078 0.30469 1.8984 0.8125 2.6719 1.5312v-11.062zm-5.6875 19.938c0-1.0703-0.14062-1.9727-0.42188-2.7031-0.27344-0.72656-0.65625-1.3164-1.1562-1.7656-0.49219-0.45703-1.0625-0.78906-1.7188-1-0.64844-0.20703-1.3398-0.3125-2.0781-0.3125-0.74219 0-1.4336 0.15234-2.0781 0.45312-0.64844 0.30469-1.2148 0.71094-1.7031 1.2188-0.48047 0.51172-0.85938 1.1211-1.1406 1.8281-0.27344 0.69922-0.40625 1.4336-0.40625 2.2031 0 0.80469 0.13281 1.5469 0.40625 2.2344 0.28125 0.6875 0.66016 1.2891 1.1406 1.7969 0.48828 0.5 1.0547 0.90625 1.7031 1.2188 0.64453 0.30469 1.3359 0.45312 2.0781 0.45312 1.4883 0 2.75-0.45703 3.7812-1.375 1.0312-0.92578 1.5625-2.3438 1.5938-4.25z"/>
      </g>
   </g>
   <g fill="#272727">
      <g transform="translate(191.58 235.26)">
         <path d="m8.0469 0h-5.6875v-20.484h5.6875zm-2.8438-23.297c-0.88672 0-1.6328-0.30078-2.2344-0.90625-0.60547-0.60156-0.90625-1.3477-0.90625-2.2344 0-0.875 0.30078-1.6172 0.90625-2.2344 0.60156-0.625 1.3477-0.9375 2.2344-0.9375 0.88281 0 1.6289 0.3125 2.2344 0.9375 0.60156 0.61719 0.90625 1.3594 0.90625 2.2344 0 0.88672-0.30469 1.6328-0.90625 2.2344-0.60547 0.60547-1.3516 0.90625-2.2344 0.90625z"/>
      </g>
   </g>
   <g fill="#272727">
      <g transform="translate(202.03 235.26)">
         <path d="m9.4219-7.3438c0 0.96094 0.28906 1.6992 0.875 2.2188 0.59375 0.52344 1.375 0.78125 2.3438 0.78125 0.76953 0 1.5391-0.14844 2.3125-0.45312v4.7969c-0.6875 0.21875-1.418 0.39844-2.1875 0.54688-0.77344 0.15625-1.543 0.23438-2.3125 0.23438-0.88672 0-1.7305-0.10938-2.5312-0.32812-0.79297-0.21875-1.5078-0.59375-2.1406-1.125-0.63672-0.53906-1.1406-1.2578-1.5156-2.1562-0.36719-0.89453-0.54688-2.0039-0.54688-3.3281v-9.25h-2.9375v-3.8438l2.9375-1.2344v-4.5781h5.7031v4.5781h5.5312v5.0781h-5.5312z"/>
      </g>
   </g>
   <g fill="#457d58">
      <g transform="translate(217.85 235.26)">
         <path d="m21.594-29.281h6.2812v29.281h-6.2812v-12.594h-13.422v12.594h-6.2344v-29.281h6.2344v10.984h13.422z"/>
      </g>
   </g>
   <g fill="#457d58">
      <g transform="translate(247.65 235.26)">
         <path d="m14.828-20.484h5.7031v20.484h-4.875l-0.82812-1.5625c-0.66797 0.46094-1.4219 0.83594-2.2656 1.125-0.83594 0.29297-1.7305 0.4375-2.6875 0.4375-0.75 0-1.6016-0.10938-2.5469-0.32812-0.94922-0.21875-1.8398-0.62891-2.6719-1.2344-0.82422-0.61328-1.5156-1.457-2.0781-2.5312-0.5625-1.0703-0.84375-2.4609-0.84375-4.1719v-12.219h5.7344v12.016c0 0.63672 0.10156 1.1797 0.3125 1.625 0.20703 0.4375 0.48438 0.78906 0.82812 1.0469 0.34375 0.26172 0.73438 0.45312 1.1719 0.57812 0.44531 0.125 0.90625 0.1875 1.375 0.1875 0.35156 0 0.74219-0.0625 1.1719-0.1875 0.42578-0.125 0.82031-0.32031 1.1875-0.59375 0.375-0.28125 0.6875-0.64062 0.9375-1.0781 0.25-0.44531 0.375-0.97266 0.375-1.5781z"/>
      </g>
   </g>
   <g fill="#457d58">
      <g transform="translate(270.07 235.26)">
         <path d="m13.703-21.062c1.4375 0 2.7734 0.28125 4.0156 0.84375 1.2383 0.5625 2.3125 1.3359 3.2188 2.3125 0.90625 0.98047 1.6133 2.125 2.125 3.4375 0.50781 1.3047 0.76562 2.6992 0.76562 4.1875 0 1.4922-0.25781 2.8906-0.76562 4.2031-0.51172 1.3047-1.2188 2.4453-2.125 3.4219-0.90625 0.96875-1.9805 1.7422-3.2188 2.3125-1.2422 0.5625-2.5781 0.84375-4.0156 0.84375-1.2109 0-2.3711-0.21484-3.4844-0.64062-1.1172-0.42578-1.9922-0.97266-2.625-1.6406l-0.82812 1.7812h-4.8594v-30.141h5.6875v11.312c1.5703-1.4883 3.6094-2.2344 6.1094-2.2344zm-0.78125 16.484c0.75 0 1.4453-0.14844 2.0938-0.45312 0.64453-0.3125 1.2109-0.71875 1.7031-1.2188 0.5-0.50781 0.88281-1.1094 1.1562-1.7969 0.28125-0.6875 0.42188-1.4297 0.42188-2.2344 0-0.76953-0.14062-1.5039-0.42188-2.2031-0.27344-0.70703-0.65625-1.3164-1.1562-1.8281-0.49219-0.50781-1.0586-0.91406-1.7031-1.2188-0.64844-0.30078-1.3438-0.45312-2.0938-0.45312-0.74219 0-1.4336 0.10547-2.0781 0.3125-0.64844 0.21094-1.2148 0.54297-1.7031 1-0.48047 0.44922-0.85938 1.0391-1.1406 1.7656-0.27344 0.73047-0.40625 1.6328-0.40625 2.7031 0 0.96875 0.13281 1.8047 0.40625 2.5 0.28125 0.69922 0.66016 1.2773 1.1406 1.7344 0.48828 0.46094 1.0547 0.80859 1.7031 1.0469 0.64453 0.23047 1.3359 0.34375 2.0781 0.34375z"/>
      </g>
   </g>
   <g fill="#272727">
      <g transform="translate(294.47 235.26)"/>
   </g>
</svg>