<?xml version="1.0" encoding="UTF-8"?>
<svg id="Layer_2" data-name="Layer 2" xmlns="http://www.w3.org/2000/svg" width="230.1791" height="51.4768" viewBox="0 0 230.1791 51.4768">
  <g id="Layer_1-2" data-name="Layer 1">
    <path d="M58.0405,51.1575c-4.139,0-7.6052.0966-11.0583-.0679-.8487-.0409-1.868-.7599-2.4495-1.465-2.6906-3.2633-5.3054-6.5937-7.8402-9.9806-1.1037-1.4746-2.2919-2.1953-4.2313-2.1213-4.3209.1645-8.6532.0966-12.9802.0618-3.9301-.0322-6.0497-1.9194-5.9513-5.1888.094-3.1197,2.13-4.7344,6.0497-4.7396,5.8329-.0052,11.665.0418,17.4979.0226,5.4717-.0174,9.649-3.9371,9.595-8.9413-.0531-4.8972-4.1791-8.7637-9.5141-8.7864-9.3069-.0409-18.6129-.0113-26.6464-.0113C6.5609,13.4816,3.4107,16.3063.0151,19.3494V.1889C.7271.1245,1.3617.0131,1.9971.014c12.229.0096,24.4607-.0783,36.6879.0949,7.6165.1088,13.6827,3.4078,17.2951,10.2557,3.2851,6.2272,3.0396,12.6773-.9253,18.4615-2.0534,2.9961-5.1957,5.2445-8.0561,8.036,3.2929,4.2617,6.9506,8.9988,11.0417,14.2955Z" style="fill: #000034; stroke-width: 0px;"/>
    <path d="M40.8107,51.141c-8.3668,0-16.086.2115-23.7878-.054C7.8562,50.7711.3111,42.7785.0108,33.5378-.3096,23.7043,6.5618,15.0511,16.0715,14.2685c7.3876-.6067,14.8552-.3508,22.2845-.3029,2.7585.0174,4.4315,2.0952,4.421,4.838-.0122,2.9134-1.8549,4.8458-5.0338,4.8876-5.9278.0775-11.8591-.0975-17.7851.0174-1.8314.0357-3.7882.3621-5.4482,1.0959-3.568,1.5773-5.4961,5.4543-4.8685,9.0083.7373,4.1851,3.8196,7.2657,7.9934,7.4789,4.4097.2254,8.8473-.0505,13.257.1854,1.2813.0688,2.8211.8539,3.6986,1.8088,2.1344,2.3241,3.951,4.9416,6.2203,7.855Z" style="fill: #ffe86b; stroke-width: 0px;"/>
    <path d="M79.4218,19.446h-4.0864v7.0446h-7.4997V0h12.117C82.3468,0,84.4279.3982,86.1914,1.1946c1.7683.7917,3.1312,1.9247,4.0864,3.4038.96,1.4743,1.4411,3.2094,1.4411,5.2052,0,1.9152-.4504,3.5887-1.3463,5.0156-.8912,1.4222-2.1712,2.5386-3.8399,3.3469l5.7172,8.3245h-8.0211l-4.807-7.0446ZM84.153,9.8036c0-1.2373-.3935-2.1996-1.1757-2.8823-.7846-.6826-1.9437-1.024-3.4796-1.024h-4.1623v7.7651h4.1623c1.536,0,2.695-.3342,3.4796-1.005.7822-.6684,1.1757-1.6213,1.1757-2.8539Z" style="fill: #000034; stroke-width: 0px;"/>
    <path d="M99.1369,0h7.4997v26.4906h-7.4997V0Z" style="fill: #000034; stroke-width: 0px;"/>
    <path d="M115.261,0h12.5342C130.6965,0,133.2683.5452,135.5129,1.6308c2.2423,1.0809,3.9845,2.6216,5.2242,4.6174,1.2373,1.9911,1.8583,4.3234,1.8583,6.9972s-.621,5.0108-1.8583,7.0066c-1.2397,1.9911-2.9819,3.5318-5.2242,4.6174-2.2447,1.0809-4.8165,1.6213-7.7177,1.6213h-12.5342V0ZM127.4918,20.5079c2.2684,0,4.0888-.64,5.4612-1.9247,1.3772-1.2894,2.0669-3.0672,2.0669-5.3379,0-2.2684-.6898-4.0485-2.0669-5.3379-1.3724-1.2894-3.1928-1.9342-5.4612-1.9342h-4.7311v14.5348h4.7311Z" style="fill: #000034; stroke-width: 0px;"/>
    <path d="M167.5755,21.3423h-11.2068l-2.0859,5.1483h-7.6419L158.3408,0h7.3764l11.7378,26.4906h-7.8031l-2.0764-5.1483ZM165.3758,15.8147l-3.4038-8.4762-3.4038,8.4762h6.8075Z" style="fill: #000034; stroke-width: 0px;"/>
    <path d="M206.7805,26.4906l-.0758-14.0417-6.8075,11.4344h-3.3279l-6.7791-11.0551v13.6625h-6.9308V0h6.1723l9.3106,15.2838L207.4252,0h6.1723l.0758,26.4906h-6.8929Z" style="fill: #000034; stroke-width: 0px;"/>
    <path d="M222.26,0h7.4997v26.4906h-7.4997V0Z" style="fill: #000034; stroke-width: 0px;"/>
    <path d="M75.3239,51.4768c-1.5431,0-2.9368-.3342-4.1812-1.005-1.2468-.6684-2.2257-1.5976-2.9392-2.7875-.7158-1.1875-1.0714-2.5315-1.0714-4.0295,0-1.5028.3555-2.8491,1.0714-4.039.7135-1.1875,1.6924-2.1167,2.9392-2.7875,1.2444-.6684,2.6476-1.005,4.2097-1.005,1.3084,0,2.4936.2323,3.5555.6921,1.0619.4622,1.9531,1.1259,2.6737,1.9911l-2.2565,2.0764c-1.024-1.1804-2.2921-1.773-3.802-1.773-.9363,0-1.773.2062-2.5125.6163-.7348.4124-1.306.9837-1.7161,1.7161-.4124.7348-.6163,1.5715-.6163,2.5125,0,.9363.2038,1.773.6163,2.5125.4101.7348.9813,1.306,1.7161,1.7161.7395.4124,1.5763.6163,2.5125.6163,1.5099,0,2.778-.5997,3.802-1.8014l2.2565,2.0764c-.7206.8794-1.6166,1.5502-2.6832,2.01-1.069.4598-2.2613.6921-3.5744.6921Z" style="fill: #ffe86b; stroke-width: 0px;"/>
    <path d="M92.9347,51.4768c-1.5739,0-2.9937-.3366-4.2571-1.0145-1.2586-.6755-2.2447-1.6071-2.9581-2.797-.7158-1.1875-1.0714-2.5244-1.0714-4.0106,0-1.4838.3555-2.8207,1.0714-4.0106.7135-1.1946,1.6995-2.1285,2.9581-2.8064,1.2634-.6755,2.6832-1.0145,4.2571-1.0145,1.5668,0,2.9771.339,4.2286,1.0145,1.2563.6779,2.2471,1.6118,2.9676,2.8064.7206,1.1899,1.0809,2.5268,1.0809,4.0106,0,1.4862-.3603,2.823-1.0809,4.0106-.7206,1.1899-1.7114,2.1214-2.9676,2.797-1.2515.6779-2.6619,1.0145-4.2286,1.0145ZM92.9347,48.4997c.8912,0,1.6971-.2038,2.4177-.6163.7206-.4101,1.2847-.9813,1.6971-1.7161.4101-.7395.6163-1.5763.6163-2.5125,0-.941-.2062-1.7777-.6163-2.5125-.4124-.7324-.9766-1.3037-1.6971-1.7161-.7206-.4101-1.5265-.6163-2.4177-.6163-.8983,0-1.7066.2062-2.4272.6163-.7206.4124-1.2871.9837-1.6971,1.7161-.4124.7348-.6163,1.5715-.6163,2.5125,0,.9363.2038,1.773.6163,2.5125.4101.7348.9766,1.306,1.6971,1.7161.7206.4124,1.5289.6163,2.4272.6163Z" style="fill: #ffe86b; stroke-width: 0px;"/>
    <path d="M119.4025,36.0793v15.1416h-2.8823l-7.5471-9.1873v9.1873h-3.4607v-15.1416h2.9013l7.5281,9.1968v-9.1968h3.4607Z" style="fill: #ffe86b; stroke-width: 0px;"/>
    <path d="M129.6279,51.4768c-1.1946,0-2.3513-.1612-3.4701-.4835s-2.0171-.7419-2.6927-1.261l1.1852-2.6453c.6495.4812,1.4222.8675,2.3134,1.1567.896.2844,1.792.4267,2.6832.4267.9979,0,1.7351-.147,2.2091-.4456.4741-.2963.7111-.6874.7111-1.1757,0-.3603-.1422-.6589-.4267-.9007-.2797-.2394-.64-.429-1.0809-.5689-.4361-.1446-1.0311-.3058-1.7825-.4835-1.152-.2702-2.0954-.5428-2.8349-.8154-.7348-.2773-1.3629-.7158-1.8868-1.3179-.5262-.6068-.7869-1.4151-.7869-2.4272,0-.877.237-1.6734.7111-2.3893.4741-.7135,1.1899-1.28,2.1522-1.6971.96-.4172,2.1333-.6258,3.5175-.6258.9671,0,1.9081.1185,2.8254.3508.9221.2275,1.7303.557,2.4272.986l-1.0809,2.6642c-1.3985-.7964-2.797-1.1946-4.2002-1.1946-.9813,0-1.7043.1612-2.1712.4835-.4693.3176-.7016.7348-.7016,1.2515,0,.5191.2678.9055.8059,1.1567.5428.2536,1.37.5025,2.4841.749,1.1496.2726,2.0906.5475,2.8254.8249.7395.2726,1.37.7064,1.8962,1.2989.5238.5878.7869,1.3843.7869,2.3893,0,.8675-.2418,1.6568-.7206,2.3703-.4812.7158-1.2041,1.28-2.1712,1.6971s-2.1428.6258-3.527.6258Z" style="fill: #ffe86b; stroke-width: 0px;"/>
    <path d="M146.8437,51.4768c-2.1617,0-3.847-.5973-5.0535-1.792-1.2017-1.1946-1.8014-2.9036-1.8014-5.1294v-8.4762h3.4986v8.353c0,2.7116,1.1235,4.0675,3.3753,4.0675,1.0927,0,1.9271-.3271,2.503-.986.5807-.6566.8723-1.6829.8723-3.0814v-8.353h3.4607v8.4762c0,2.2257-.6044,3.9347-1.8109,5.1294-1.2017,1.1946-2.8823,1.792-5.044,1.792Z" style="fill: #ffe86b; stroke-width: 0px;"/>
    <path d="M158.8173,36.0793h3.5081v12.2877h7.585v2.8539h-11.0931v-15.1416Z" style="fill: #ffe86b; stroke-width: 0px;"/>
    <path d="M176.6821,38.9332h-4.8449v-2.8539h13.1979v2.8539h-4.8449v12.2877h-3.5081v-12.2877Z" style="fill: #ffe86b; stroke-width: 0px;"/>
    <path d="M188.5731,36.0793h3.5081v15.1416h-3.5081v-15.1416Z" style="fill: #ffe86b; stroke-width: 0px;"/>
    <path d="M211.2214,36.0793v15.1416h-2.8823l-7.5471-9.1873v9.1873h-3.4607v-15.1416h2.9013l7.5281,9.1968v-9.1968h3.4607Z" style="fill: #ffe86b; stroke-width: 0px;"/>
    <path d="M226.6995,43.4178h3.2047v6.1344c-.8225.621-1.773,1.0975-2.8539,1.4317-1.0809.3271-2.1712.493-3.271.493-1.5691,0-2.9819-.3342-4.2381-1.005-1.2515-.6684-2.2352-1.5976-2.9487-2.7875-.7158-1.1875-1.0714-2.5315-1.0714-4.0295,0-1.5028.3555-2.8491,1.0714-4.039.7135-1.1875,1.7019-2.1167,2.9676-2.7875,1.2705-.6684,2.6974-1.005,4.2855-1.005,1.3274,0,2.5315.2252,3.6124.6732,1.0809.4432,1.9863,1.0903,2.7211,1.9437l-2.2471,2.0764c-1.0809-1.1377-2.3869-1.7066-3.9158-1.7066-.9623,0-1.818.2038-2.5694.6068-.7538.3982-1.3369.9671-1.754,1.7066-.4172.7348-.6258,1.5786-.6258,2.5315,0,.9363.2086,1.773.6258,2.5125.4172.7348.9955,1.306,1.7351,1.7161.7443.4124,1.5952.6163,2.5505.6163,1.0098,0,1.9176-.2181,2.7211-.6542v-4.4277Z" style="fill: #ffe86b; stroke-width: 0px;"/>
  </g>
</svg>